<mxfile host="app.diagrams.net" agent="Mozilla/5.0 (Windows NT 10.0; Win64; x64) AppleWebKit/537.36 (KHTML, like Gecko) Chrome/135.0.0.0 Safari/537.36" version="26.2.14">
  <diagram id="C5RBs43oDa-KdzZeNtuy" name="Page-1">
    <mxGraphModel dx="1453" dy="785" grid="0" gridSize="10" guides="1" tooltips="1" connect="1" arrows="1" fold="1" page="1" pageScale="1" pageWidth="1654" pageHeight="2336" math="0" shadow="0">
      <root>
        <mxCell id="WIyWlLk6GJQsqaUBKTNV-0" />
        <mxCell id="WIyWlLk6GJQsqaUBKTNV-1" parent="WIyWlLk6GJQsqaUBKTNV-0" />
        <mxCell id="WIyWlLk6GJQsqaUBKTNV-2" value="" style="rounded=0;html=1;jettySize=auto;orthogonalLoop=1;fontSize=11;endArrow=block;endFill=0;endSize=8;strokeWidth=1;shadow=0;labelBackgroundColor=none;edgeStyle=orthogonalEdgeStyle;" parent="WIyWlLk6GJQsqaUBKTNV-1" source="WIyWlLk6GJQsqaUBKTNV-3" target="WIyWlLk6GJQsqaUBKTNV-6" edge="1">
          <mxGeometry relative="1" as="geometry" />
        </mxCell>
        <mxCell id="WIyWlLk6GJQsqaUBKTNV-3" value="User enters website address in browser" style="rounded=1;whiteSpace=wrap;html=1;fontSize=12;glass=0;strokeWidth=1;shadow=0;" parent="WIyWlLk6GJQsqaUBKTNV-1" vertex="1">
          <mxGeometry x="320" y="30" width="120" height="50" as="geometry" />
        </mxCell>
        <mxCell id="QdOsERUppPzkCm_l_ZLG-2" style="edgeStyle=orthogonalEdgeStyle;rounded=0;orthogonalLoop=1;jettySize=auto;html=1;entryX=0.5;entryY=0;entryDx=0;entryDy=0;exitX=0;exitY=0.5;exitDx=0;exitDy=0;" parent="WIyWlLk6GJQsqaUBKTNV-1" source="WIyWlLk6GJQsqaUBKTNV-6" edge="1">
          <mxGeometry relative="1" as="geometry">
            <mxPoint x="300" y="172.5" as="sourcePoint" />
            <mxPoint x="107" y="210.5" as="targetPoint" />
            <Array as="points">
              <mxPoint x="300" y="170" />
              <mxPoint x="107" y="170" />
            </Array>
          </mxGeometry>
        </mxCell>
        <mxCell id="QdOsERUppPzkCm_l_ZLG-32" value="Yes" style="edgeLabel;html=1;align=center;verticalAlign=middle;resizable=0;points=[];fontSize=16;fontStyle=1" parent="QdOsERUppPzkCm_l_ZLG-2" vertex="1" connectable="0">
          <mxGeometry x="0.174" relative="1" as="geometry">
            <mxPoint x="59" y="-2" as="offset" />
          </mxGeometry>
        </mxCell>
        <mxCell id="dMczTScoeT86qVo3MQdP-12" style="edgeStyle=orthogonalEdgeStyle;rounded=0;orthogonalLoop=1;jettySize=auto;html=1;entryX=0;entryY=0.5;entryDx=0;entryDy=0;" edge="1" parent="WIyWlLk6GJQsqaUBKTNV-1" source="WIyWlLk6GJQsqaUBKTNV-6" target="WIyWlLk6GJQsqaUBKTNV-7">
          <mxGeometry relative="1" as="geometry" />
        </mxCell>
        <mxCell id="dMczTScoeT86qVo3MQdP-13" value="&lt;font style=&quot;font-size: 16px;&quot;&gt;&lt;b&gt;No&lt;/b&gt;&lt;/font&gt;" style="edgeLabel;html=1;align=center;verticalAlign=middle;resizable=0;points=[];" vertex="1" connectable="0" parent="dMczTScoeT86qVo3MQdP-12">
          <mxGeometry x="-0.2181" relative="1" as="geometry">
            <mxPoint as="offset" />
          </mxGeometry>
        </mxCell>
        <mxCell id="WIyWlLk6GJQsqaUBKTNV-6" value="Connection to server?" style="rhombus;whiteSpace=wrap;html=1;shadow=0;fontFamily=Helvetica;fontSize=12;align=center;strokeWidth=1;spacing=6;spacingTop=-4;" parent="WIyWlLk6GJQsqaUBKTNV-1" vertex="1">
          <mxGeometry x="300" y="131.5" width="160" height="79" as="geometry" />
        </mxCell>
        <mxCell id="WIyWlLk6GJQsqaUBKTNV-7" value="Error message" style="rounded=1;whiteSpace=wrap;html=1;fontSize=12;glass=0;strokeWidth=1;shadow=0;" parent="WIyWlLk6GJQsqaUBKTNV-1" vertex="1">
          <mxGeometry x="510" y="151" width="120" height="40" as="geometry" />
        </mxCell>
        <mxCell id="QdOsERUppPzkCm_l_ZLG-11" style="edgeStyle=orthogonalEdgeStyle;rounded=0;orthogonalLoop=1;jettySize=auto;html=1;entryX=0;entryY=0.5;entryDx=0;entryDy=0;" parent="WIyWlLk6GJQsqaUBKTNV-1" source="WIyWlLk6GJQsqaUBKTNV-10" target="QdOsERUppPzkCm_l_ZLG-5" edge="1">
          <mxGeometry relative="1" as="geometry">
            <mxPoint x="181" y="401" as="targetPoint" />
          </mxGeometry>
        </mxCell>
        <mxCell id="QdOsERUppPzkCm_l_ZLG-12" value="No" style="edgeLabel;html=1;align=center;verticalAlign=middle;resizable=0;points=[];fontSize=7;" parent="QdOsERUppPzkCm_l_ZLG-11" vertex="1" connectable="0">
          <mxGeometry x="0.4705" relative="1" as="geometry">
            <mxPoint x="-11" as="offset" />
          </mxGeometry>
        </mxCell>
        <mxCell id="QdOsERUppPzkCm_l_ZLG-25" value="" style="edgeStyle=orthogonalEdgeStyle;rounded=0;orthogonalLoop=1;jettySize=auto;html=1;" parent="WIyWlLk6GJQsqaUBKTNV-1" source="WIyWlLk6GJQsqaUBKTNV-10" target="QdOsERUppPzkCm_l_ZLG-24" edge="1">
          <mxGeometry relative="1" as="geometry" />
        </mxCell>
        <mxCell id="QdOsERUppPzkCm_l_ZLG-35" value="&lt;font style=&quot;font-size: 8px;&quot;&gt;Yes&lt;/font&gt;" style="edgeLabel;html=1;align=center;verticalAlign=middle;resizable=0;points=[];" parent="QdOsERUppPzkCm_l_ZLG-25" vertex="1" connectable="0">
          <mxGeometry x="-0.4517" y="-2" relative="1" as="geometry">
            <mxPoint x="1" as="offset" />
          </mxGeometry>
        </mxCell>
        <mxCell id="WIyWlLk6GJQsqaUBKTNV-10" value="&lt;font style=&quot;font-size: 9px;&quot;&gt;Icon&amp;nbsp;&lt;b style=&quot;&quot;&gt;HATCH&lt;/b&gt;&lt;/font&gt;&lt;div&gt;&lt;font style=&quot;font-size: 9px;&quot;&gt;&amp;nbsp;clicked?&lt;/font&gt;&lt;/div&gt;" style="rhombus;whiteSpace=wrap;html=1;shadow=0;fontFamily=Helvetica;fontSize=12;align=center;strokeWidth=1;spacing=6;spacingTop=-4;" parent="WIyWlLk6GJQsqaUBKTNV-1" vertex="1">
          <mxGeometry x="42" y="360" width="90" height="70" as="geometry" />
        </mxCell>
        <mxCell id="QdOsERUppPzkCm_l_ZLG-10" style="edgeStyle=orthogonalEdgeStyle;rounded=0;orthogonalLoop=1;jettySize=auto;html=1;entryX=0.5;entryY=0;entryDx=0;entryDy=0;exitX=0.346;exitY=0.968;exitDx=0;exitDy=0;exitPerimeter=0;" parent="WIyWlLk6GJQsqaUBKTNV-1" source="QdOsERUppPzkCm_l_ZLG-1" edge="1">
          <mxGeometry relative="1" as="geometry">
            <mxPoint x="86.98000000000002" y="270.44000000000005" as="sourcePoint" />
            <mxPoint x="87" y="360" as="targetPoint" />
          </mxGeometry>
        </mxCell>
        <mxCell id="QdOsERUppPzkCm_l_ZLG-1" value="Show the content of &lt;font style=&quot;color: rgb(127, 0, 255);&quot;&gt;index.php&lt;/font&gt;" style="shape=process;whiteSpace=wrap;html=1;backgroundOutline=1;" parent="WIyWlLk6GJQsqaUBKTNV-1" vertex="1">
          <mxGeometry x="42" y="209" width="130" height="60" as="geometry" />
        </mxCell>
        <mxCell id="QdOsERUppPzkCm_l_ZLG-13" style="edgeStyle=orthogonalEdgeStyle;rounded=0;orthogonalLoop=1;jettySize=auto;html=1;entryX=0;entryY=0.5;entryDx=0;entryDy=0;" parent="WIyWlLk6GJQsqaUBKTNV-1" source="QdOsERUppPzkCm_l_ZLG-5" target="QdOsERUppPzkCm_l_ZLG-6" edge="1">
          <mxGeometry relative="1" as="geometry" />
        </mxCell>
        <mxCell id="QdOsERUppPzkCm_l_ZLG-14" value="No" style="edgeLabel;html=1;align=right;verticalAlign=middle;resizable=0;points=[];fontSize=7;" parent="QdOsERUppPzkCm_l_ZLG-13" vertex="1" connectable="0">
          <mxGeometry x="-0.0073" y="-1" relative="1" as="geometry">
            <mxPoint x="5" y="-1" as="offset" />
          </mxGeometry>
        </mxCell>
        <mxCell id="QdOsERUppPzkCm_l_ZLG-5" value="Nav&lt;b&gt;Training&lt;/b&gt;&lt;div&gt;&amp;nbsp;clicked?&lt;/div&gt;" style="rhombus;whiteSpace=wrap;html=1;shadow=0;fontFamily=Helvetica;fontSize=9;align=center;strokeWidth=1;spacing=6;spacingTop=-4;" parent="WIyWlLk6GJQsqaUBKTNV-1" vertex="1">
          <mxGeometry x="171" y="360" width="90" height="70" as="geometry" />
        </mxCell>
        <mxCell id="QdOsERUppPzkCm_l_ZLG-15" style="edgeStyle=orthogonalEdgeStyle;rounded=0;orthogonalLoop=1;jettySize=auto;html=1;entryX=0;entryY=0.5;entryDx=0;entryDy=0;" parent="WIyWlLk6GJQsqaUBKTNV-1" source="QdOsERUppPzkCm_l_ZLG-6" target="QdOsERUppPzkCm_l_ZLG-7" edge="1">
          <mxGeometry relative="1" as="geometry" />
        </mxCell>
        <mxCell id="QdOsERUppPzkCm_l_ZLG-17" value="No" style="edgeLabel;html=1;align=center;verticalAlign=middle;resizable=0;points=[];fontSize=7;" parent="QdOsERUppPzkCm_l_ZLG-15" vertex="1" connectable="0">
          <mxGeometry x="0.5465" relative="1" as="geometry">
            <mxPoint x="-13" as="offset" />
          </mxGeometry>
        </mxCell>
        <mxCell id="QdOsERUppPzkCm_l_ZLG-6" value="Nav&amp;nbsp;&lt;b&gt;About&lt;/b&gt;&lt;div&gt;&amp;nbsp;clicked?&lt;/div&gt;" style="rhombus;whiteSpace=wrap;html=1;shadow=0;fontFamily=Helvetica;fontSize=9;align=center;strokeWidth=1;spacing=6;spacingTop=-4;" parent="WIyWlLk6GJQsqaUBKTNV-1" vertex="1">
          <mxGeometry x="301" y="360" width="90" height="70" as="geometry" />
        </mxCell>
        <mxCell id="QdOsERUppPzkCm_l_ZLG-7" value="Nav&amp;nbsp;&lt;b&gt;Sing up&lt;/b&gt;&lt;div&gt;&amp;nbsp;clicked?&lt;/div&gt;" style="rhombus;whiteSpace=wrap;html=1;shadow=0;fontFamily=Helvetica;fontSize=9;align=center;strokeWidth=1;spacing=6;spacingTop=-4;" parent="WIyWlLk6GJQsqaUBKTNV-1" vertex="1">
          <mxGeometry x="431" y="360" width="90" height="70" as="geometry" />
        </mxCell>
        <mxCell id="QdOsERUppPzkCm_l_ZLG-21" style="edgeStyle=orthogonalEdgeStyle;rounded=0;orthogonalLoop=1;jettySize=auto;html=1;entryX=0;entryY=0.5;entryDx=0;entryDy=0;" parent="WIyWlLk6GJQsqaUBKTNV-1" source="QdOsERUppPzkCm_l_ZLG-8" target="QdOsERUppPzkCm_l_ZLG-9" edge="1">
          <mxGeometry relative="1" as="geometry" />
        </mxCell>
        <mxCell id="QdOsERUppPzkCm_l_ZLG-22" value="No" style="edgeLabel;html=1;align=center;verticalAlign=middle;resizable=0;points=[];fontSize=7;" parent="QdOsERUppPzkCm_l_ZLG-21" vertex="1" connectable="0">
          <mxGeometry x="-0.1837" y="1" relative="1" as="geometry">
            <mxPoint as="offset" />
          </mxGeometry>
        </mxCell>
        <mxCell id="QdOsERUppPzkCm_l_ZLG-8" value="Nav&amp;nbsp;&lt;b&gt;Login&lt;/b&gt;&lt;div&gt;&amp;nbsp;clicked?&lt;/div&gt;" style="rhombus;whiteSpace=wrap;html=1;shadow=0;fontFamily=Helvetica;fontSize=9;align=center;strokeWidth=1;spacing=6;spacingTop=-4;" parent="WIyWlLk6GJQsqaUBKTNV-1" vertex="1">
          <mxGeometry x="561" y="360" width="90" height="70" as="geometry" />
        </mxCell>
        <mxCell id="QdOsERUppPzkCm_l_ZLG-9" value="Button&amp;nbsp;&lt;b&gt;Start&lt;/b&gt;&lt;div&gt;&amp;nbsp;clicked?&lt;/div&gt;" style="rhombus;whiteSpace=wrap;html=1;shadow=0;fontFamily=Helvetica;fontSize=9;align=center;strokeWidth=1;spacing=6;spacingTop=-4;" parent="WIyWlLk6GJQsqaUBKTNV-1" vertex="1">
          <mxGeometry x="691" y="360" width="90" height="70" as="geometry" />
        </mxCell>
        <mxCell id="QdOsERUppPzkCm_l_ZLG-19" style="edgeStyle=orthogonalEdgeStyle;rounded=0;orthogonalLoop=1;jettySize=auto;html=1;exitX=1;exitY=0.5;exitDx=0;exitDy=0;entryX=0;entryY=0.5;entryDx=0;entryDy=0;" parent="WIyWlLk6GJQsqaUBKTNV-1" source="QdOsERUppPzkCm_l_ZLG-7" target="QdOsERUppPzkCm_l_ZLG-8" edge="1">
          <mxGeometry relative="1" as="geometry" />
        </mxCell>
        <mxCell id="QdOsERUppPzkCm_l_ZLG-20" value="No" style="edgeLabel;html=1;align=center;verticalAlign=middle;resizable=0;points=[];fontSize=7;" parent="QdOsERUppPzkCm_l_ZLG-19" vertex="1" connectable="0">
          <mxGeometry x="-0.3075" relative="1" as="geometry">
            <mxPoint x="2" as="offset" />
          </mxGeometry>
        </mxCell>
        <mxCell id="QdOsERUppPzkCm_l_ZLG-23" value="&lt;font style=&quot;font-size: 9px;&quot;&gt;Show the content of &lt;font style=&quot;color: rgb(127, 0, 255);&quot;&gt;index.php&lt;/font&gt;&lt;/font&gt;" style="shape=process;whiteSpace=wrap;html=1;backgroundOutline=1;" parent="WIyWlLk6GJQsqaUBKTNV-1" vertex="1">
          <mxGeometry x="40" y="577" width="93" height="50" as="geometry" />
        </mxCell>
        <mxCell id="QdOsERUppPzkCm_l_ZLG-26" style="edgeStyle=orthogonalEdgeStyle;rounded=0;orthogonalLoop=1;jettySize=auto;html=1;entryX=0.5;entryY=0;entryDx=0;entryDy=0;" parent="WIyWlLk6GJQsqaUBKTNV-1" source="QdOsERUppPzkCm_l_ZLG-24" target="QdOsERUppPzkCm_l_ZLG-23" edge="1">
          <mxGeometry relative="1" as="geometry" />
        </mxCell>
        <mxCell id="QdOsERUppPzkCm_l_ZLG-27" value="Yes" style="edgeLabel;html=1;align=center;verticalAlign=middle;resizable=0;points=[];" parent="QdOsERUppPzkCm_l_ZLG-26" vertex="1" connectable="0">
          <mxGeometry x="-0.0061" relative="1" as="geometry">
            <mxPoint y="-3" as="offset" />
          </mxGeometry>
        </mxCell>
        <mxCell id="QdOsERUppPzkCm_l_ZLG-87" style="edgeStyle=orthogonalEdgeStyle;rounded=0;orthogonalLoop=1;jettySize=auto;html=1;entryX=0.042;entryY=0.962;entryDx=0;entryDy=0;entryPerimeter=0;" parent="WIyWlLk6GJQsqaUBKTNV-1" source="QdOsERUppPzkCm_l_ZLG-24" target="WIyWlLk6GJQsqaUBKTNV-7" edge="1">
          <mxGeometry relative="1" as="geometry">
            <Array as="points">
              <mxPoint x="160" y="499" />
              <mxPoint x="160" y="280" />
              <mxPoint x="470" y="280" />
              <mxPoint x="470" y="210" />
              <mxPoint x="515" y="210" />
            </Array>
          </mxGeometry>
        </mxCell>
        <mxCell id="QdOsERUppPzkCm_l_ZLG-88" value="No" style="edgeLabel;html=1;align=center;verticalAlign=middle;resizable=0;points=[];" parent="QdOsERUppPzkCm_l_ZLG-87" vertex="1" connectable="0">
          <mxGeometry x="-0.7725" y="1" relative="1" as="geometry">
            <mxPoint as="offset" />
          </mxGeometry>
        </mxCell>
        <mxCell id="QdOsERUppPzkCm_l_ZLG-24" value="&lt;font style=&quot;font-size: 9px;&quot;&gt;Connection to server?&lt;/font&gt;" style="rhombus;whiteSpace=wrap;html=1;shadow=0;fontFamily=Helvetica;fontSize=12;align=center;strokeWidth=1;spacing=6;spacingTop=-4;" parent="WIyWlLk6GJQsqaUBKTNV-1" vertex="1">
          <mxGeometry x="42" y="464" width="90" height="70" as="geometry" />
        </mxCell>
        <mxCell id="QdOsERUppPzkCm_l_ZLG-36" value="" style="edgeStyle=orthogonalEdgeStyle;rounded=0;orthogonalLoop=1;jettySize=auto;html=1;" parent="WIyWlLk6GJQsqaUBKTNV-1" target="QdOsERUppPzkCm_l_ZLG-41" edge="1">
          <mxGeometry relative="1" as="geometry">
            <mxPoint x="346" y="430" as="sourcePoint" />
          </mxGeometry>
        </mxCell>
        <mxCell id="QdOsERUppPzkCm_l_ZLG-37" value="&lt;font style=&quot;font-size: 8px;&quot;&gt;Yes&lt;/font&gt;" style="edgeLabel;html=1;align=center;verticalAlign=middle;resizable=0;points=[];" parent="QdOsERUppPzkCm_l_ZLG-36" vertex="1" connectable="0">
          <mxGeometry x="-0.4517" y="-2" relative="1" as="geometry">
            <mxPoint x="1" as="offset" />
          </mxGeometry>
        </mxCell>
        <mxCell id="QdOsERUppPzkCm_l_ZLG-38" value="&lt;font style=&quot;font-size: 9px;&quot;&gt;Show the content of about.php&lt;/font&gt;" style="shape=process;whiteSpace=wrap;html=1;backgroundOutline=1;fillColor=#f8cecc;strokeColor=#b85450;" parent="WIyWlLk6GJQsqaUBKTNV-1" vertex="1">
          <mxGeometry x="299" y="577" width="93" height="50" as="geometry" />
        </mxCell>
        <mxCell id="QdOsERUppPzkCm_l_ZLG-39" style="edgeStyle=orthogonalEdgeStyle;rounded=0;orthogonalLoop=1;jettySize=auto;html=1;entryX=0.5;entryY=0;entryDx=0;entryDy=0;" parent="WIyWlLk6GJQsqaUBKTNV-1" source="QdOsERUppPzkCm_l_ZLG-41" target="QdOsERUppPzkCm_l_ZLG-38" edge="1">
          <mxGeometry relative="1" as="geometry" />
        </mxCell>
        <mxCell id="QdOsERUppPzkCm_l_ZLG-40" value="Yes" style="edgeLabel;html=1;align=center;verticalAlign=middle;resizable=0;points=[];" parent="QdOsERUppPzkCm_l_ZLG-39" vertex="1" connectable="0">
          <mxGeometry x="-0.0061" relative="1" as="geometry">
            <mxPoint y="-3" as="offset" />
          </mxGeometry>
        </mxCell>
        <mxCell id="QdOsERUppPzkCm_l_ZLG-61" style="edgeStyle=orthogonalEdgeStyle;rounded=0;orthogonalLoop=1;jettySize=auto;html=1;entryX=0.25;entryY=1;entryDx=0;entryDy=0;" parent="WIyWlLk6GJQsqaUBKTNV-1" source="QdOsERUppPzkCm_l_ZLG-41" target="WIyWlLk6GJQsqaUBKTNV-7" edge="1">
          <mxGeometry relative="1" as="geometry">
            <Array as="points">
              <mxPoint x="400" y="499" />
              <mxPoint x="400" y="310" />
              <mxPoint x="540" y="310" />
            </Array>
          </mxGeometry>
        </mxCell>
        <mxCell id="QdOsERUppPzkCm_l_ZLG-68" value="No" style="edgeLabel;html=1;align=center;verticalAlign=middle;resizable=0;points=[];" parent="QdOsERUppPzkCm_l_ZLG-61" vertex="1" connectable="0">
          <mxGeometry x="-0.8011" y="-1" relative="1" as="geometry">
            <mxPoint as="offset" />
          </mxGeometry>
        </mxCell>
        <mxCell id="QdOsERUppPzkCm_l_ZLG-41" value="&lt;font style=&quot;font-size: 9px;&quot;&gt;Connection to server?&lt;/font&gt;" style="rhombus;whiteSpace=wrap;html=1;shadow=0;fontFamily=Helvetica;fontSize=12;align=center;strokeWidth=1;spacing=6;spacingTop=-4;" parent="WIyWlLk6GJQsqaUBKTNV-1" vertex="1">
          <mxGeometry x="301" y="464" width="90" height="70" as="geometry" />
        </mxCell>
        <mxCell id="QdOsERUppPzkCm_l_ZLG-42" value="" style="edgeStyle=orthogonalEdgeStyle;rounded=0;orthogonalLoop=1;jettySize=auto;html=1;" parent="WIyWlLk6GJQsqaUBKTNV-1" target="QdOsERUppPzkCm_l_ZLG-47" edge="1">
          <mxGeometry relative="1" as="geometry">
            <mxPoint x="476" y="430" as="sourcePoint" />
          </mxGeometry>
        </mxCell>
        <mxCell id="QdOsERUppPzkCm_l_ZLG-43" value="&lt;font style=&quot;font-size: 8px;&quot;&gt;Yes&lt;/font&gt;" style="edgeLabel;html=1;align=center;verticalAlign=middle;resizable=0;points=[];" parent="QdOsERUppPzkCm_l_ZLG-42" vertex="1" connectable="0">
          <mxGeometry x="-0.4517" y="-2" relative="1" as="geometry">
            <mxPoint x="1" as="offset" />
          </mxGeometry>
        </mxCell>
        <mxCell id="QdOsERUppPzkCm_l_ZLG-44" value="&lt;font style=&quot;font-size: 9px;&quot;&gt;Show the content of singup.php&lt;/font&gt;" style="shape=process;whiteSpace=wrap;html=1;backgroundOutline=1;fillColor=#f8cecc;strokeColor=#b85450;" parent="WIyWlLk6GJQsqaUBKTNV-1" vertex="1">
          <mxGeometry x="429" y="577" width="93" height="50" as="geometry" />
        </mxCell>
        <mxCell id="QdOsERUppPzkCm_l_ZLG-45" style="edgeStyle=orthogonalEdgeStyle;rounded=0;orthogonalLoop=1;jettySize=auto;html=1;entryX=0.5;entryY=0;entryDx=0;entryDy=0;" parent="WIyWlLk6GJQsqaUBKTNV-1" source="QdOsERUppPzkCm_l_ZLG-47" target="QdOsERUppPzkCm_l_ZLG-44" edge="1">
          <mxGeometry relative="1" as="geometry" />
        </mxCell>
        <mxCell id="QdOsERUppPzkCm_l_ZLG-46" value="Yes" style="edgeLabel;html=1;align=center;verticalAlign=middle;resizable=0;points=[];" parent="QdOsERUppPzkCm_l_ZLG-45" vertex="1" connectable="0">
          <mxGeometry x="-0.0061" relative="1" as="geometry">
            <mxPoint y="-3" as="offset" />
          </mxGeometry>
        </mxCell>
        <mxCell id="QdOsERUppPzkCm_l_ZLG-47" value="&lt;font style=&quot;font-size: 9px;&quot;&gt;Connection to server?&lt;/font&gt;" style="rhombus;whiteSpace=wrap;html=1;shadow=0;fontFamily=Helvetica;fontSize=12;align=center;strokeWidth=1;spacing=6;spacingTop=-4;" parent="WIyWlLk6GJQsqaUBKTNV-1" vertex="1">
          <mxGeometry x="431" y="464" width="90" height="70" as="geometry" />
        </mxCell>
        <mxCell id="QdOsERUppPzkCm_l_ZLG-48" value="" style="edgeStyle=orthogonalEdgeStyle;rounded=0;orthogonalLoop=1;jettySize=auto;html=1;" parent="WIyWlLk6GJQsqaUBKTNV-1" target="QdOsERUppPzkCm_l_ZLG-53" edge="1">
          <mxGeometry relative="1" as="geometry">
            <mxPoint x="606" y="430" as="sourcePoint" />
          </mxGeometry>
        </mxCell>
        <mxCell id="QdOsERUppPzkCm_l_ZLG-49" value="&lt;font style=&quot;font-size: 8px;&quot;&gt;Yes&lt;/font&gt;" style="edgeLabel;html=1;align=center;verticalAlign=middle;resizable=0;points=[];" parent="QdOsERUppPzkCm_l_ZLG-48" vertex="1" connectable="0">
          <mxGeometry x="-0.4517" y="-2" relative="1" as="geometry">
            <mxPoint x="1" as="offset" />
          </mxGeometry>
        </mxCell>
        <mxCell id="QdOsERUppPzkCm_l_ZLG-50" value="&lt;font style=&quot;font-size: 9px;&quot;&gt;Show the content of login.php&lt;/font&gt;" style="shape=process;whiteSpace=wrap;html=1;backgroundOutline=1;fillColor=#f8cecc;strokeColor=#b85450;" parent="WIyWlLk6GJQsqaUBKTNV-1" vertex="1">
          <mxGeometry x="559" y="577" width="93" height="50" as="geometry" />
        </mxCell>
        <mxCell id="QdOsERUppPzkCm_l_ZLG-51" style="edgeStyle=orthogonalEdgeStyle;rounded=0;orthogonalLoop=1;jettySize=auto;html=1;entryX=0.5;entryY=0;entryDx=0;entryDy=0;" parent="WIyWlLk6GJQsqaUBKTNV-1" source="QdOsERUppPzkCm_l_ZLG-53" target="QdOsERUppPzkCm_l_ZLG-50" edge="1">
          <mxGeometry relative="1" as="geometry" />
        </mxCell>
        <mxCell id="QdOsERUppPzkCm_l_ZLG-52" value="Yes" style="edgeLabel;html=1;align=center;verticalAlign=middle;resizable=0;points=[];" parent="QdOsERUppPzkCm_l_ZLG-51" vertex="1" connectable="0">
          <mxGeometry x="-0.0061" relative="1" as="geometry">
            <mxPoint y="-3" as="offset" />
          </mxGeometry>
        </mxCell>
        <mxCell id="QdOsERUppPzkCm_l_ZLG-53" value="&lt;font style=&quot;font-size: 9px;&quot;&gt;Connection to server?&lt;/font&gt;" style="rhombus;whiteSpace=wrap;html=1;shadow=0;fontFamily=Helvetica;fontSize=12;align=center;strokeWidth=1;spacing=6;spacingTop=-4;" parent="WIyWlLk6GJQsqaUBKTNV-1" vertex="1">
          <mxGeometry x="561" y="464" width="90" height="70" as="geometry" />
        </mxCell>
        <mxCell id="QdOsERUppPzkCm_l_ZLG-54" value="" style="edgeStyle=orthogonalEdgeStyle;rounded=0;orthogonalLoop=1;jettySize=auto;html=1;" parent="WIyWlLk6GJQsqaUBKTNV-1" target="QdOsERUppPzkCm_l_ZLG-59" edge="1">
          <mxGeometry relative="1" as="geometry">
            <mxPoint x="736" y="430" as="sourcePoint" />
          </mxGeometry>
        </mxCell>
        <mxCell id="QdOsERUppPzkCm_l_ZLG-55" value="&lt;font style=&quot;font-size: 8px;&quot;&gt;Yes&lt;/font&gt;" style="edgeLabel;html=1;align=center;verticalAlign=middle;resizable=0;points=[];" parent="QdOsERUppPzkCm_l_ZLG-54" vertex="1" connectable="0">
          <mxGeometry x="-0.4517" y="-2" relative="1" as="geometry">
            <mxPoint x="1" as="offset" />
          </mxGeometry>
        </mxCell>
        <mxCell id="QdOsERUppPzkCm_l_ZLG-64" style="edgeStyle=orthogonalEdgeStyle;rounded=0;orthogonalLoop=1;jettySize=auto;html=1;entryX=1;entryY=0.5;entryDx=0;entryDy=0;" parent="WIyWlLk6GJQsqaUBKTNV-1" source="QdOsERUppPzkCm_l_ZLG-59" target="WIyWlLk6GJQsqaUBKTNV-7" edge="1">
          <mxGeometry relative="1" as="geometry">
            <Array as="points">
              <mxPoint x="800" y="499" />
              <mxPoint x="800" y="171" />
            </Array>
          </mxGeometry>
        </mxCell>
        <mxCell id="QdOsERUppPzkCm_l_ZLG-65" value="No" style="edgeLabel;html=1;align=center;verticalAlign=middle;resizable=0;points=[];" parent="QdOsERUppPzkCm_l_ZLG-64" vertex="1" connectable="0">
          <mxGeometry x="-0.7245" y="1" relative="1" as="geometry">
            <mxPoint as="offset" />
          </mxGeometry>
        </mxCell>
        <mxCell id="QdOsERUppPzkCm_l_ZLG-93" style="edgeStyle=orthogonalEdgeStyle;rounded=0;orthogonalLoop=1;jettySize=auto;html=1;entryX=1;entryY=0.5;entryDx=0;entryDy=0;" parent="WIyWlLk6GJQsqaUBKTNV-1" source="QdOsERUppPzkCm_l_ZLG-59" target="QdOsERUppPzkCm_l_ZLG-78" edge="1">
          <mxGeometry relative="1" as="geometry">
            <Array as="points">
              <mxPoint x="736" y="695" />
            </Array>
          </mxGeometry>
        </mxCell>
        <mxCell id="QdOsERUppPzkCm_l_ZLG-94" value="Yes" style="edgeLabel;html=1;align=center;verticalAlign=middle;resizable=0;points=[];" parent="QdOsERUppPzkCm_l_ZLG-93" vertex="1" connectable="0">
          <mxGeometry x="-0.6668" y="1" relative="1" as="geometry">
            <mxPoint as="offset" />
          </mxGeometry>
        </mxCell>
        <mxCell id="QdOsERUppPzkCm_l_ZLG-59" value="&lt;font style=&quot;font-size: 9px;&quot;&gt;Connection to server?&lt;/font&gt;" style="rhombus;whiteSpace=wrap;html=1;shadow=0;fontFamily=Helvetica;fontSize=12;align=center;strokeWidth=1;spacing=6;spacingTop=-4;" parent="WIyWlLk6GJQsqaUBKTNV-1" vertex="1">
          <mxGeometry x="691" y="464" width="90" height="70" as="geometry" />
        </mxCell>
        <mxCell id="QdOsERUppPzkCm_l_ZLG-62" style="edgeStyle=orthogonalEdgeStyle;rounded=0;orthogonalLoop=1;jettySize=auto;html=1;" parent="WIyWlLk6GJQsqaUBKTNV-1" source="QdOsERUppPzkCm_l_ZLG-47" target="WIyWlLk6GJQsqaUBKTNV-7" edge="1">
          <mxGeometry relative="1" as="geometry">
            <Array as="points">
              <mxPoint x="530" y="499" />
              <mxPoint x="530" y="328" />
              <mxPoint x="558" y="328" />
            </Array>
          </mxGeometry>
        </mxCell>
        <mxCell id="QdOsERUppPzkCm_l_ZLG-67" value="No" style="edgeLabel;html=1;align=center;verticalAlign=middle;resizable=0;points=[];" parent="QdOsERUppPzkCm_l_ZLG-62" vertex="1" connectable="0">
          <mxGeometry x="-0.5291" y="1" relative="1" as="geometry">
            <mxPoint as="offset" />
          </mxGeometry>
        </mxCell>
        <mxCell id="QdOsERUppPzkCm_l_ZLG-63" style="edgeStyle=orthogonalEdgeStyle;rounded=0;orthogonalLoop=1;jettySize=auto;html=1;entryX=0.896;entryY=0.97;entryDx=0;entryDy=0;entryPerimeter=0;" parent="WIyWlLk6GJQsqaUBKTNV-1" source="QdOsERUppPzkCm_l_ZLG-53" target="WIyWlLk6GJQsqaUBKTNV-7" edge="1">
          <mxGeometry relative="1" as="geometry">
            <Array as="points">
              <mxPoint x="550" y="499" />
              <mxPoint x="550" y="340" />
              <mxPoint x="618" y="340" />
            </Array>
          </mxGeometry>
        </mxCell>
        <mxCell id="QdOsERUppPzkCm_l_ZLG-66" value="No" style="edgeLabel;html=1;align=center;verticalAlign=middle;resizable=0;points=[];" parent="QdOsERUppPzkCm_l_ZLG-63" vertex="1" connectable="0">
          <mxGeometry x="-0.7572" y="1" relative="1" as="geometry">
            <mxPoint as="offset" />
          </mxGeometry>
        </mxCell>
        <mxCell id="QdOsERUppPzkCm_l_ZLG-75" value="" style="edgeStyle=orthogonalEdgeStyle;rounded=0;orthogonalLoop=1;jettySize=auto;html=1;" parent="WIyWlLk6GJQsqaUBKTNV-1" target="QdOsERUppPzkCm_l_ZLG-81" edge="1">
          <mxGeometry relative="1" as="geometry">
            <mxPoint x="216" y="430" as="sourcePoint" />
          </mxGeometry>
        </mxCell>
        <mxCell id="QdOsERUppPzkCm_l_ZLG-76" value="&lt;font style=&quot;font-size: 8px;&quot;&gt;Yes&lt;/font&gt;" style="edgeLabel;html=1;align=center;verticalAlign=middle;resizable=0;points=[];" parent="QdOsERUppPzkCm_l_ZLG-75" vertex="1" connectable="0">
          <mxGeometry x="-0.4517" y="-2" relative="1" as="geometry">
            <mxPoint x="1" as="offset" />
          </mxGeometry>
        </mxCell>
        <mxCell id="QdOsERUppPzkCm_l_ZLG-77" style="edgeStyle=orthogonalEdgeStyle;rounded=0;orthogonalLoop=1;jettySize=auto;html=1;entryX=0.5;entryY=0;entryDx=0;entryDy=0;" parent="WIyWlLk6GJQsqaUBKTNV-1" source="QdOsERUppPzkCm_l_ZLG-78" target="QdOsERUppPzkCm_l_ZLG-83" edge="1">
          <mxGeometry relative="1" as="geometry" />
        </mxCell>
        <mxCell id="QdOsERUppPzkCm_l_ZLG-78" value="&lt;font style=&quot;font-size: 9px;&quot;&gt;Request to server with DB&lt;/font&gt;" style="shape=process;whiteSpace=wrap;html=1;backgroundOutline=1;" parent="WIyWlLk6GJQsqaUBKTNV-1" vertex="1">
          <mxGeometry x="325.25" y="669.9999999999999" width="93" height="50" as="geometry" />
        </mxCell>
        <mxCell id="QdOsERUppPzkCm_l_ZLG-89" style="edgeStyle=orthogonalEdgeStyle;rounded=0;orthogonalLoop=1;jettySize=auto;html=1;entryX=0.5;entryY=1;entryDx=0;entryDy=0;" parent="WIyWlLk6GJQsqaUBKTNV-1" source="QdOsERUppPzkCm_l_ZLG-81" target="WIyWlLk6GJQsqaUBKTNV-7" edge="1">
          <mxGeometry relative="1" as="geometry">
            <Array as="points">
              <mxPoint x="270" y="499" />
              <mxPoint x="270" y="300" />
              <mxPoint x="570" y="300" />
            </Array>
          </mxGeometry>
        </mxCell>
        <mxCell id="QdOsERUppPzkCm_l_ZLG-90" value="No" style="edgeLabel;html=1;align=center;verticalAlign=middle;resizable=0;points=[];" parent="QdOsERUppPzkCm_l_ZLG-89" vertex="1" connectable="0">
          <mxGeometry x="-0.8563" y="2" relative="1" as="geometry">
            <mxPoint as="offset" />
          </mxGeometry>
        </mxCell>
        <mxCell id="QdOsERUppPzkCm_l_ZLG-91" style="edgeStyle=orthogonalEdgeStyle;rounded=0;orthogonalLoop=1;jettySize=auto;html=1;entryX=0;entryY=0.5;entryDx=0;entryDy=0;" parent="WIyWlLk6GJQsqaUBKTNV-1" source="QdOsERUppPzkCm_l_ZLG-81" target="QdOsERUppPzkCm_l_ZLG-78" edge="1">
          <mxGeometry relative="1" as="geometry">
            <Array as="points">
              <mxPoint x="216" y="695" />
            </Array>
          </mxGeometry>
        </mxCell>
        <mxCell id="QdOsERUppPzkCm_l_ZLG-92" value="Yes" style="edgeLabel;html=1;align=center;verticalAlign=middle;resizable=0;points=[];" parent="QdOsERUppPzkCm_l_ZLG-91" vertex="1" connectable="0">
          <mxGeometry x="-0.5003" relative="1" as="geometry">
            <mxPoint as="offset" />
          </mxGeometry>
        </mxCell>
        <mxCell id="QdOsERUppPzkCm_l_ZLG-81" value="&lt;font style=&quot;font-size: 9px;&quot;&gt;Connection to server?&lt;/font&gt;" style="rhombus;whiteSpace=wrap;html=1;shadow=0;fontFamily=Helvetica;fontSize=12;align=center;strokeWidth=1;spacing=6;spacingTop=-4;" parent="WIyWlLk6GJQsqaUBKTNV-1" vertex="1">
          <mxGeometry x="171" y="464" width="90" height="70" as="geometry" />
        </mxCell>
        <mxCell id="QdOsERUppPzkCm_l_ZLG-82" style="edgeStyle=orthogonalEdgeStyle;rounded=0;orthogonalLoop=1;jettySize=auto;html=1;entryX=0.5;entryY=0;entryDx=0;entryDy=0;" parent="WIyWlLk6GJQsqaUBKTNV-1" source="QdOsERUppPzkCm_l_ZLG-83" target="QdOsERUppPzkCm_l_ZLG-85" edge="1">
          <mxGeometry relative="1" as="geometry" />
        </mxCell>
        <mxCell id="QdOsERUppPzkCm_l_ZLG-83" value="&lt;font style=&quot;font-size: 9px;&quot;&gt;Select all languages from table &lt;b&gt;&quot;&lt;font style=&quot;color: rgb(51, 153, 255);&quot;&gt;languages&lt;/font&gt;&quot;&lt;/b&gt;&lt;/font&gt;" style="shape=process;whiteSpace=wrap;html=1;backgroundOutline=1;" parent="WIyWlLk6GJQsqaUBKTNV-1" vertex="1">
          <mxGeometry x="314.25" y="750" width="115" height="50" as="geometry" />
        </mxCell>
        <mxCell id="QdOsERUppPzkCm_l_ZLG-84" style="edgeStyle=orthogonalEdgeStyle;rounded=0;orthogonalLoop=1;jettySize=auto;html=1;entryX=0.5;entryY=0;entryDx=0;entryDy=0;" parent="WIyWlLk6GJQsqaUBKTNV-1" source="QdOsERUppPzkCm_l_ZLG-85" target="QdOsERUppPzkCm_l_ZLG-86" edge="1">
          <mxGeometry relative="1" as="geometry" />
        </mxCell>
        <mxCell id="QdOsERUppPzkCm_l_ZLG-85" value="&lt;font style=&quot;font-size: 9px;&quot;&gt;Send response with &lt;font style=&quot;color: rgb(255, 153, 51);&quot;&gt;array of languages&lt;/font&gt;&amp;nbsp;&lt;/font&gt;&lt;div&gt;&lt;font style=&quot;font-size: 9px;&quot;&gt;to the browser&lt;/font&gt;&lt;/div&gt;" style="shape=process;whiteSpace=wrap;html=1;backgroundOutline=1;" parent="WIyWlLk6GJQsqaUBKTNV-1" vertex="1">
          <mxGeometry x="306.75" y="830" width="130" height="50" as="geometry" />
        </mxCell>
        <mxCell id="QdOsERUppPzkCm_l_ZLG-96" value="" style="edgeStyle=orthogonalEdgeStyle;rounded=0;orthogonalLoop=1;jettySize=auto;html=1;" parent="WIyWlLk6GJQsqaUBKTNV-1" source="QdOsERUppPzkCm_l_ZLG-86" target="QdOsERUppPzkCm_l_ZLG-95" edge="1">
          <mxGeometry relative="1" as="geometry" />
        </mxCell>
        <mxCell id="QdOsERUppPzkCm_l_ZLG-86" value="&lt;font style=&quot;font-size: 9px;&quot;&gt;Form the content of the page &lt;b&gt;&lt;font style=&quot;color: rgb(127, 0, 255);&quot;&gt;languages.php&lt;/font&gt;&lt;/b&gt;&lt;/font&gt;" style="shape=process;whiteSpace=wrap;html=1;backgroundOutline=1;" parent="WIyWlLk6GJQsqaUBKTNV-1" vertex="1">
          <mxGeometry x="316.75" y="909.9999999999999" width="110" height="50" as="geometry" />
        </mxCell>
        <mxCell id="QdOsERUppPzkCm_l_ZLG-98" value="" style="edgeStyle=orthogonalEdgeStyle;rounded=0;orthogonalLoop=1;jettySize=auto;html=1;entryX=0.5;entryY=0;entryDx=0;entryDy=0;" parent="WIyWlLk6GJQsqaUBKTNV-1" source="QdOsERUppPzkCm_l_ZLG-95" target="QdOsERUppPzkCm_l_ZLG-99" edge="1">
          <mxGeometry relative="1" as="geometry">
            <mxPoint x="376" y="1140" as="targetPoint" />
          </mxGeometry>
        </mxCell>
        <mxCell id="QdOsERUppPzkCm_l_ZLG-95" value="User chosed preffered programming language" style="whiteSpace=wrap;html=1;rounded=1;fontSize=9;" parent="WIyWlLk6GJQsqaUBKTNV-1" vertex="1">
          <mxGeometry x="310.5" y="989.9999999999999" width="122" height="44.18" as="geometry" />
        </mxCell>
        <mxCell id="dMczTScoeT86qVo3MQdP-9" style="edgeStyle=orthogonalEdgeStyle;rounded=0;orthogonalLoop=1;jettySize=auto;html=1;entryX=0.5;entryY=0;entryDx=0;entryDy=0;" edge="1" parent="WIyWlLk6GJQsqaUBKTNV-1" source="QdOsERUppPzkCm_l_ZLG-99" target="dMczTScoeT86qVo3MQdP-1">
          <mxGeometry relative="1" as="geometry" />
        </mxCell>
        <mxCell id="QdOsERUppPzkCm_l_ZLG-99" value="Request to the server to DB with the &lt;b&gt;&lt;font style=&quot;color: rgb(255, 153, 51);&quot;&gt;language_id&lt;/font&gt;&lt;/b&gt;" style="shape=process;whiteSpace=wrap;html=1;backgroundOutline=1;fontSize=9;" parent="WIyWlLk6GJQsqaUBKTNV-1" vertex="1">
          <mxGeometry x="311.25" y="1060" width="121" height="52" as="geometry" />
        </mxCell>
        <mxCell id="QdOsERUppPzkCm_l_ZLG-103" style="edgeStyle=orthogonalEdgeStyle;rounded=0;orthogonalLoop=1;jettySize=auto;html=1;entryX=0.5;entryY=0;entryDx=0;entryDy=0;" parent="WIyWlLk6GJQsqaUBKTNV-1" source="QdOsERUppPzkCm_l_ZLG-100" target="QdOsERUppPzkCm_l_ZLG-102" edge="1">
          <mxGeometry relative="1" as="geometry" />
        </mxCell>
        <mxCell id="QdOsERUppPzkCm_l_ZLG-100" value="Select all questions from the table &quot;&lt;b&gt;&lt;font style=&quot;color: rgb(51, 153, 255);&quot;&gt;questions&lt;/font&gt;&lt;/b&gt;&quot;, where the&amp;nbsp;&lt;div&gt;&lt;font style=&quot;color: rgb(255, 153, 51);&quot;&gt;languages_topic_id&lt;/font&gt; = user`s languages_topic_id&lt;/div&gt;" style="shape=process;whiteSpace=wrap;html=1;backgroundOutline=1;fontSize=9;" parent="WIyWlLk6GJQsqaUBKTNV-1" vertex="1">
          <mxGeometry x="261" y="1540" width="227" height="60" as="geometry" />
        </mxCell>
        <mxCell id="QdOsERUppPzkCm_l_ZLG-108" style="edgeStyle=orthogonalEdgeStyle;rounded=0;orthogonalLoop=1;jettySize=auto;html=1;entryX=0.5;entryY=0;entryDx=0;entryDy=0;" parent="WIyWlLk6GJQsqaUBKTNV-1" source="QdOsERUppPzkCm_l_ZLG-102" target="QdOsERUppPzkCm_l_ZLG-107" edge="1">
          <mxGeometry relative="1" as="geometry" />
        </mxCell>
        <mxCell id="QdOsERUppPzkCm_l_ZLG-102" value="&lt;font style=&quot;font-size: 9px;&quot;&gt;Send response with &lt;font style=&quot;color: rgb(255, 153, 51);&quot;&gt;array of questions&lt;/font&gt; to the browser&lt;/font&gt;" style="shape=process;whiteSpace=wrap;html=1;backgroundOutline=1;" parent="WIyWlLk6GJQsqaUBKTNV-1" vertex="1">
          <mxGeometry x="319" y="1630" width="110" height="50" as="geometry" />
        </mxCell>
        <mxCell id="QdOsERUppPzkCm_l_ZLG-107" value="&lt;span style=&quot;font-size: 9px;&quot;&gt;Form the content of the page &lt;b&gt;&lt;font style=&quot;color: rgb(127, 0, 255);&quot;&gt;quiz.php&lt;/font&gt;&lt;/b&gt; for the first question from the &lt;font style=&quot;color: rgb(255, 153, 51);&quot;&gt;array questions&lt;/font&gt;&lt;/span&gt;" style="ellipse;whiteSpace=wrap;html=1;" parent="WIyWlLk6GJQsqaUBKTNV-1" vertex="1">
          <mxGeometry x="304" y="1714" width="140" height="80" as="geometry" />
        </mxCell>
        <mxCell id="dMczTScoeT86qVo3MQdP-0" style="edgeStyle=orthogonalEdgeStyle;rounded=0;orthogonalLoop=1;jettySize=auto;html=1;entryX=0.5;entryY=0;entryDx=0;entryDy=0;" edge="1" source="dMczTScoeT86qVo3MQdP-1" target="dMczTScoeT86qVo3MQdP-3" parent="WIyWlLk6GJQsqaUBKTNV-1">
          <mxGeometry relative="1" as="geometry" />
        </mxCell>
        <mxCell id="dMczTScoeT86qVo3MQdP-1" value="Select all topics from the table &quot;&lt;b&gt;&lt;font style=&quot;color: rgb(51, 153, 255);&quot;&gt;languages_topic&lt;/font&gt;&lt;/b&gt;&quot;, where the&amp;nbsp;&lt;div&gt;&lt;font style=&quot;color: rgb(255, 153, 51);&quot;&gt;language_id&lt;/font&gt; = user`s language_id&lt;/div&gt;" style="shape=process;whiteSpace=wrap;html=1;backgroundOutline=1;fontSize=9;" vertex="1" parent="WIyWlLk6GJQsqaUBKTNV-1">
          <mxGeometry x="281.75" y="1140" width="179.5" height="60" as="geometry" />
        </mxCell>
        <mxCell id="dMczTScoeT86qVo3MQdP-10" style="edgeStyle=orthogonalEdgeStyle;rounded=0;orthogonalLoop=1;jettySize=auto;html=1;entryX=0.5;entryY=0;entryDx=0;entryDy=0;" edge="1" parent="WIyWlLk6GJQsqaUBKTNV-1" source="dMczTScoeT86qVo3MQdP-3" target="dMczTScoeT86qVo3MQdP-5">
          <mxGeometry relative="1" as="geometry" />
        </mxCell>
        <mxCell id="dMczTScoeT86qVo3MQdP-3" value="&lt;font style=&quot;font-size: 9px;&quot;&gt;Send response with &lt;font style=&quot;color: rgb(255, 153, 51);&quot;&gt;array of topics&lt;/font&gt; to the browser&lt;/font&gt;" style="shape=process;whiteSpace=wrap;html=1;backgroundOutline=1;" vertex="1" parent="WIyWlLk6GJQsqaUBKTNV-1">
          <mxGeometry x="316.5" y="1230" width="110" height="50" as="geometry" />
        </mxCell>
        <mxCell id="dMczTScoeT86qVo3MQdP-4" value="" style="edgeStyle=orthogonalEdgeStyle;rounded=0;orthogonalLoop=1;jettySize=auto;html=1;" edge="1" source="dMczTScoeT86qVo3MQdP-5" target="dMczTScoeT86qVo3MQdP-7" parent="WIyWlLk6GJQsqaUBKTNV-1">
          <mxGeometry relative="1" as="geometry" />
        </mxCell>
        <mxCell id="dMczTScoeT86qVo3MQdP-5" value="&lt;font style=&quot;font-size: 9px;&quot;&gt;Form the content of the page &lt;b&gt;&lt;font style=&quot;color: rgb(127, 0, 255);&quot;&gt;topics.php&lt;/font&gt;&lt;/b&gt;&lt;/font&gt;" style="shape=process;whiteSpace=wrap;html=1;backgroundOutline=1;" vertex="1" parent="WIyWlLk6GJQsqaUBKTNV-1">
          <mxGeometry x="316.5" y="1310" width="110" height="50" as="geometry" />
        </mxCell>
        <mxCell id="dMczTScoeT86qVo3MQdP-6" value="" style="edgeStyle=orthogonalEdgeStyle;rounded=0;orthogonalLoop=1;jettySize=auto;html=1;entryX=0.5;entryY=0;entryDx=0;entryDy=0;" edge="1" source="dMczTScoeT86qVo3MQdP-7" target="dMczTScoeT86qVo3MQdP-8" parent="WIyWlLk6GJQsqaUBKTNV-1">
          <mxGeometry relative="1" as="geometry">
            <mxPoint x="375.5" y="1551.18" as="targetPoint" />
          </mxGeometry>
        </mxCell>
        <mxCell id="dMczTScoeT86qVo3MQdP-7" value="User chosed preffered topic" style="whiteSpace=wrap;html=1;rounded=1;fontSize=9;" vertex="1" parent="WIyWlLk6GJQsqaUBKTNV-1">
          <mxGeometry x="328.25" y="1390" width="86.5" height="44.18" as="geometry" />
        </mxCell>
        <mxCell id="dMczTScoeT86qVo3MQdP-8" value="Request to the server to DB with the &lt;b&gt;&lt;font style=&quot;color: rgb(255, 153, 51);&quot;&gt;languages_topic_id&lt;/font&gt;&lt;/b&gt;" style="shape=process;whiteSpace=wrap;html=1;backgroundOutline=1;fontSize=9;" vertex="1" parent="WIyWlLk6GJQsqaUBKTNV-1">
          <mxGeometry x="311" y="1460" width="121" height="52" as="geometry" />
        </mxCell>
        <mxCell id="dMczTScoeT86qVo3MQdP-11" style="edgeStyle=orthogonalEdgeStyle;rounded=0;orthogonalLoop=1;jettySize=auto;html=1;entryX=0.487;entryY=0.006;entryDx=0;entryDy=0;entryPerimeter=0;" edge="1" parent="WIyWlLk6GJQsqaUBKTNV-1" source="dMczTScoeT86qVo3MQdP-8" target="QdOsERUppPzkCm_l_ZLG-100">
          <mxGeometry relative="1" as="geometry" />
        </mxCell>
      </root>
    </mxGraphModel>
  </diagram>
</mxfile>
